<svg width="55" height="24" viewBox="0 0 55 24" fill="none" xmlns="http://www.w3.org/2000/svg">
<path d="M0.95293 18V0.499999H4.15293V15.5H11.9029V18H0.95293ZM20.0359 18.3C18.8359 18.3 17.7526 18.025 16.7859 17.475C15.8359 16.925 15.0776 16.1667 14.5109 15.2C13.9609 14.2167 13.6859 13.0833 13.6859 11.8C13.6859 10.5167 13.9693 9.39167 14.5359 8.425C15.1026 7.44167 15.8609 6.675 16.8109 6.125C17.7776 5.575 18.8609 5.3 20.0609 5.3C21.2443 5.3 22.3109 5.575 23.2609 6.125C24.2276 6.675 24.9859 7.44167 25.5359 8.425C26.1026 9.39167 26.3859 10.5167 26.3859 11.8C26.3859 13.0833 26.1026 14.2167 25.5359 15.2C24.9859 16.1667 24.2276 16.925 23.2609 17.475C22.2943 18.025 21.2193 18.3 20.0359 18.3ZM20.0359 15.525C20.8693 15.525 21.5943 15.2167 22.2109 14.6C22.8276 13.9667 23.1359 13.0333 23.1359 11.8C23.1359 10.5667 22.8276 9.64167 22.2109 9.025C21.5943 8.39167 20.8776 8.075 20.0609 8.075C19.2109 8.075 18.4776 8.39167 17.8609 9.025C17.2609 9.64167 16.9609 10.5667 16.9609 11.8C16.9609 13.0333 17.2609 13.9667 17.8609 14.6C18.4776 15.2167 19.2026 15.525 20.0359 15.525ZM33.7158 14.3C33.1158 14.3 32.5575 14.2333 32.0408 14.1L31.1158 15.025C31.3992 15.175 31.7825 15.3 32.2658 15.4C32.7492 15.5 33.5325 15.6 34.6158 15.7C36.2658 15.85 37.4658 16.2417 38.2158 16.875C38.9658 17.5083 39.3408 18.3833 39.3408 19.5C39.3408 20.2333 39.1408 20.925 38.7408 21.575C38.3408 22.2417 37.7242 22.775 36.8908 23.175C36.0575 23.5917 34.9908 23.8 33.6908 23.8C31.9242 23.8 30.4992 23.4667 29.4158 22.8C28.3325 22.15 27.7908 21.1667 27.7908 19.85C27.7908 18.7333 28.3325 17.7667 29.4158 16.95C29.0825 16.8 28.7908 16.6417 28.5408 16.475C28.3075 16.3083 28.0992 16.1333 27.9158 15.95V15.375L30.0908 13.075C29.1242 12.225 28.6408 11.1333 28.6408 9.8C28.6408 8.96667 28.8408 8.20833 29.2408 7.525C29.6575 6.84167 30.2408 6.3 30.9908 5.9C31.7408 5.5 32.6492 5.3 33.7158 5.3C34.4158 5.3 35.0658 5.4 35.6658 5.6H40.3658V7.55L38.2408 7.7C38.5742 8.33333 38.7408 9.03333 38.7408 9.8C38.7408 10.6333 38.5408 11.3917 38.1408 12.075C37.7408 12.7583 37.1575 13.3 36.3908 13.7C35.6408 14.1 34.7492 14.3 33.7158 14.3ZM33.7158 11.85C34.3658 11.85 34.8992 11.675 35.3158 11.325C35.7492 10.975 35.9658 10.475 35.9658 9.825C35.9658 9.175 35.7492 8.675 35.3158 8.325C34.8992 7.975 34.3658 7.8 33.7158 7.8C33.0325 7.8 32.4825 7.975 32.0658 8.325C31.6492 8.675 31.4408 9.175 31.4408 9.825C31.4408 10.475 31.6492 10.975 32.0658 11.325C32.4825 11.675 33.0325 11.85 33.7158 11.85ZM30.7158 19.525C30.7158 20.1417 30.9992 20.6 31.5658 20.9C32.1492 21.2167 32.8575 21.375 33.6908 21.375C34.4908 21.375 35.1408 21.2083 35.6408 20.875C36.1408 20.5583 36.3908 20.125 36.3908 19.575C36.3908 19.125 36.2242 18.75 35.8908 18.45C35.5742 18.15 34.9325 17.9667 33.9658 17.9C33.2825 17.85 32.6492 17.775 32.0658 17.675C31.5825 17.9417 31.2325 18.2333 31.0158 18.55C30.8158 18.8667 30.7158 19.1917 30.7158 19.525ZM48.1609 18.3C46.9609 18.3 45.8776 18.025 44.9109 17.475C43.9609 16.925 43.2026 16.1667 42.6359 15.2C42.0859 14.2167 41.8109 13.0833 41.8109 11.8C41.8109 10.5167 42.0943 9.39167 42.6609 8.425C43.2276 7.44167 43.9859 6.675 44.9359 6.125C45.9026 5.575 46.9859 5.3 48.1859 5.3C49.3693 5.3 50.4359 5.575 51.3859 6.125C52.3526 6.675 53.1109 7.44167 53.6609 8.425C54.2276 9.39167 54.5109 10.5167 54.5109 11.8C54.5109 13.0833 54.2276 14.2167 53.6609 15.2C53.1109 16.1667 52.3526 16.925 51.3859 17.475C50.4193 18.025 49.3443 18.3 48.1609 18.3ZM48.1609 15.525C48.9943 15.525 49.7193 15.2167 50.3359 14.6C50.9526 13.9667 51.2609 13.0333 51.2609 11.8C51.2609 10.5667 50.9526 9.64167 50.3359 9.025C49.7193 8.39167 49.0026 8.075 48.1859 8.075C47.3359 8.075 46.6026 8.39167 45.9859 9.025C45.3859 9.64167 45.0859 10.5667 45.0859 11.8C45.0859 13.0333 45.3859 13.9667 45.9859 14.6C46.6026 15.2167 47.3276 15.525 48.1609 15.525Z" fill="#636363"/>
</svg>
