<svg width="18" height="18" viewBox="0 0 18 18" fill="none" xmlns="http://www.w3.org/2000/svg">
<path fill-rule="evenodd" clip-rule="evenodd" d="M7.26256 8.35832C6.89798 8.35832 6.6097 8.64166 6.6097 8.99999C6.6097 9.34999 6.89798 9.64166 7.26256 9.64166H12.3498V13.625C12.3498 15.6667 10.6625 17.3333 8.57676 17.3333H4.44764C2.37036 17.3333 0.683105 15.675 0.683105 13.6333V4.37499C0.683105 2.32499 2.37884 0.666656 4.45612 0.666656H8.59372C10.6625 0.666656 12.3498 2.32499 12.3498 4.36666V8.35832H7.26256ZM15.375 6.11683L17.8083 8.54183C17.9333 8.66683 18 8.82516 18 9.00016C18 9.16683 17.9333 9.33349 17.8083 9.45016L15.375 11.8752C15.25 12.0002 15.0833 12.0668 14.925 12.0668C14.7583 12.0668 14.5916 12.0002 14.4666 11.8752C14.2166 11.6252 14.2166 11.2168 14.4666 10.9668L15.8 9.64183H12.35V8.35849H15.8L14.4666 7.03349C14.2166 6.78349 14.2166 6.37516 14.4666 6.12516C14.7166 5.86683 15.125 5.86683 15.375 6.11683Z" fill="#99B2C6"/>
</svg>
