<svg width="76" height="34" viewBox="0 0 76 34" fill="none" xmlns="http://www.w3.org/2000/svg">
<path d="M0.38 25V0.499998H4.86V21.5H15.71V25H0.38ZM27.0962 25.42C25.4162 25.42 23.8995 25.035 22.5462 24.265C21.2162 23.495 20.1545 22.4333 19.3612 21.08C18.5912 19.7033 18.2062 18.1167 18.2062 16.32C18.2062 14.5233 18.6029 12.9483 19.3962 11.595C20.1895 10.2183 21.2512 9.145 22.5812 8.375C23.9345 7.605 25.4512 7.22 27.1312 7.22C28.7879 7.22 30.2812 7.605 31.6112 8.375C32.9645 9.145 34.0262 10.2183 34.7962 11.595C35.5895 12.9483 35.9862 14.5233 35.9862 16.32C35.9862 18.1167 35.5895 19.7033 34.7962 21.08C34.0262 22.4333 32.9645 23.495 31.6112 24.265C30.2579 25.035 28.7529 25.42 27.0962 25.42ZM27.0962 21.535C28.2629 21.535 29.2779 21.1033 30.1412 20.24C31.0045 19.3533 31.4362 18.0467 31.4362 16.32C31.4362 14.5933 31.0045 13.2983 30.1412 12.435C29.2779 11.5483 28.2745 11.105 27.1312 11.105C25.9412 11.105 24.9145 11.5483 24.0512 12.435C23.2112 13.2983 22.7912 14.5933 22.7912 16.32C22.7912 18.0467 23.2112 19.3533 24.0512 20.24C24.9145 21.1033 25.9295 21.535 27.0962 21.535ZM46.248 19.82C45.408 19.82 44.6264 19.7267 43.903 19.54L42.608 20.835C43.0047 21.045 43.5414 21.22 44.218 21.36C44.8947 21.5 45.9914 21.64 47.508 21.78C49.818 21.99 51.498 22.5383 52.548 23.425C53.598 24.3117 54.123 25.5367 54.123 27.1C54.123 28.1267 53.843 29.095 53.283 30.005C52.723 30.9383 51.8597 31.685 50.693 32.245C49.5264 32.8283 48.033 33.12 46.213 33.12C43.7397 33.12 41.7447 32.6533 40.228 31.72C38.7114 30.81 37.953 29.4333 37.953 27.59C37.953 26.0267 38.7114 24.6733 40.228 23.53C39.7614 23.32 39.353 23.0983 39.003 22.865C38.6764 22.6317 38.3847 22.3867 38.128 22.13V21.325L41.173 18.105C39.8197 16.915 39.143 15.3867 39.143 13.52C39.143 12.3533 39.423 11.2917 39.983 10.335C40.5664 9.37833 41.383 8.62 42.433 8.06C43.483 7.5 44.7547 7.22 46.248 7.22C47.228 7.22 48.138 7.36 48.978 7.64H55.558V10.37L52.583 10.58C53.0497 11.4667 53.283 12.4467 53.283 13.52C53.283 14.6867 53.003 15.7483 52.443 16.705C51.883 17.6617 51.0664 18.42 49.993 18.98C48.943 19.54 47.6947 19.82 46.248 19.82ZM46.248 16.39C47.158 16.39 47.9047 16.145 48.488 15.655C49.0947 15.165 49.398 14.465 49.398 13.555C49.398 12.645 49.0947 11.945 48.488 11.455C47.9047 10.965 47.158 10.72 46.248 10.72C45.2914 10.72 44.5214 10.965 43.938 11.455C43.3547 11.945 43.063 12.645 43.063 13.555C43.063 14.465 43.3547 15.165 43.938 15.655C44.5214 16.145 45.2914 16.39 46.248 16.39ZM42.048 27.135C42.048 27.9983 42.4447 28.64 43.238 29.06C44.0547 29.5033 45.0464 29.725 46.213 29.725C47.333 29.725 48.243 29.4917 48.943 29.025C49.643 28.5817 49.993 27.975 49.993 27.205C49.993 26.575 49.7597 26.05 49.293 25.63C48.8497 25.21 47.9514 24.9533 46.598 24.86C45.6414 24.79 44.7547 24.685 43.938 24.545C43.2614 24.9183 42.7714 25.3267 42.468 25.77C42.188 26.2133 42.048 26.6683 42.048 27.135ZM66.4712 25.42C64.7912 25.42 63.2745 25.035 61.9212 24.265C60.5912 23.495 59.5295 22.4333 58.7362 21.08C57.9662 19.7033 57.5812 18.1167 57.5812 16.32C57.5812 14.5233 57.9779 12.9483 58.7712 11.595C59.5645 10.2183 60.6262 9.145 61.9562 8.375C63.3095 7.605 64.8262 7.22 66.5062 7.22C68.1629 7.22 69.6562 7.605 70.9862 8.375C72.3395 9.145 73.4012 10.2183 74.1712 11.595C74.9645 12.9483 75.3612 14.5233 75.3612 16.32C75.3612 18.1167 74.9645 19.7033 74.1712 21.08C73.4012 22.4333 72.3395 23.495 70.9862 24.265C69.6329 25.035 68.1279 25.42 66.4712 25.42ZM66.4712 21.535C67.6379 21.535 68.6529 21.1033 69.5162 20.24C70.3795 19.3533 70.8112 18.0467 70.8112 16.32C70.8112 14.5933 70.3795 13.2983 69.5162 12.435C68.6529 11.5483 67.6495 11.105 66.5062 11.105C65.3162 11.105 64.2895 11.5483 63.4262 12.435C62.5862 13.2983 62.1662 14.5933 62.1662 16.32C62.1662 18.0467 62.5862 19.3533 63.4262 20.24C64.2895 21.1033 65.3045 21.535 66.4712 21.535Z" fill="#06152B"/>
</svg>
